<mxfile host="app.diagrams.net" modified="2023-04-04T15:44:21.269Z" agent="Mozilla/5.0 (Windows NT 10.0; Win64; x64) AppleWebKit/537.36 (KHTML, like Gecko) Chrome/111.0.0.0 Safari/537.36" etag="VhzxyhWCEvGHqmQCXf0R" version="21.1.1" type="device">
  <diagram id="prtHgNgQTEPvFCAcTncT" name="Page-1">
    <mxGraphModel dx="842" dy="1635" grid="1" gridSize="10" guides="1" tooltips="1" connect="1" arrows="1" fold="1" page="1" pageScale="1" pageWidth="827" pageHeight="1169" math="0" shadow="0">
      <root>
        <mxCell id="0" />
        <mxCell id="1" parent="0" />
        <mxCell id="-UWTrZrqMGVvwUXP6qzr-1" value="Użytkownik&lt;br&gt;podstawowy" style="shape=umlActor;verticalLabelPosition=middle;verticalAlign=middle;html=1;outlineConnect=0;spacingLeft=-6;labelPosition=left;align=right;" parent="1" vertex="1">
          <mxGeometry x="110" y="140" width="30" height="60" as="geometry" />
        </mxCell>
        <mxCell id="-UWTrZrqMGVvwUXP6qzr-2" value="Użytkownik&lt;br&gt;premium" style="shape=umlActor;verticalLabelPosition=middle;verticalAlign=middle;html=1;outlineConnect=0;labelPosition=left;align=right;" parent="1" vertex="1">
          <mxGeometry x="110" y="320" width="30" height="60" as="geometry" />
        </mxCell>
        <mxCell id="-UWTrZrqMGVvwUXP6qzr-34" value="Przeglądanie wartości&lt;br&gt;akcji w serwisie" style="ellipse;whiteSpace=wrap;html=1;" parent="1" vertex="1">
          <mxGeometry x="192.5" y="240" width="150" height="60" as="geometry" />
        </mxCell>
        <mxCell id="-UWTrZrqMGVvwUXP6qzr-37" value="" style="endArrow=classic;html=1;rounded=0;entryX=0;entryY=0.5;entryDx=0;entryDy=0;" parent="1" source="-UWTrZrqMGVvwUXP6qzr-1" target="-UWTrZrqMGVvwUXP6qzr-34" edge="1">
          <mxGeometry width="50" height="50" relative="1" as="geometry">
            <mxPoint x="180" y="330" as="sourcePoint" />
            <mxPoint x="230" y="280" as="targetPoint" />
          </mxGeometry>
        </mxCell>
        <mxCell id="-UWTrZrqMGVvwUXP6qzr-44" value="Przeglądanie wartości akcji z dłuższego okresu czasu" style="ellipse;whiteSpace=wrap;html=1;" parent="1" vertex="1">
          <mxGeometry x="190" y="320" width="150" height="60" as="geometry" />
        </mxCell>
        <mxCell id="-UWTrZrqMGVvwUXP6qzr-47" value="" style="endArrow=classic;html=1;rounded=0;entryX=0;entryY=0.5;entryDx=0;entryDy=0;" parent="1" source="-UWTrZrqMGVvwUXP6qzr-2" target="-UWTrZrqMGVvwUXP6qzr-44" edge="1">
          <mxGeometry width="50" height="50" relative="1" as="geometry">
            <mxPoint x="80" y="500" as="sourcePoint" />
            <mxPoint x="130" y="450" as="targetPoint" />
          </mxGeometry>
        </mxCell>
        <mxCell id="-UWTrZrqMGVvwUXP6qzr-48" value="Logowanie" style="ellipse;whiteSpace=wrap;html=1;" parent="1" vertex="1">
          <mxGeometry x="567.5" y="125" width="90" height="40" as="geometry" />
        </mxCell>
        <mxCell id="-UWTrZrqMGVvwUXP6qzr-50" value="" style="endArrow=classic;html=1;rounded=0;entryX=0.5;entryY=1;entryDx=0;entryDy=0;exitX=1;exitY=0.5;exitDx=0;exitDy=0;" parent="1" source="-UWTrZrqMGVvwUXP6qzr-34" target="-UWTrZrqMGVvwUXP6qzr-48" edge="1">
          <mxGeometry relative="1" as="geometry">
            <mxPoint x="325" y="142" as="sourcePoint" />
            <mxPoint x="530" y="170" as="targetPoint" />
            <Array as="points">
              <mxPoint x="530" y="270" />
            </Array>
          </mxGeometry>
        </mxCell>
        <mxCell id="-UWTrZrqMGVvwUXP6qzr-51" value="Include" style="edgeLabel;resizable=0;html=1;align=center;verticalAlign=middle;" parent="-UWTrZrqMGVvwUXP6qzr-50" connectable="0" vertex="1">
          <mxGeometry relative="1" as="geometry" />
        </mxCell>
        <mxCell id="-UWTrZrqMGVvwUXP6qzr-52" value="Zakup akcji" style="ellipse;whiteSpace=wrap;html=1;" parent="1" vertex="1">
          <mxGeometry x="390" y="300" width="105" height="40" as="geometry" />
        </mxCell>
        <mxCell id="-UWTrZrqMGVvwUXP6qzr-54" value="" style="endArrow=classic;html=1;rounded=0;entryX=1;entryY=0.5;entryDx=0;entryDy=0;exitX=0;exitY=0;exitDx=0;exitDy=0;" parent="1" source="-UWTrZrqMGVvwUXP6qzr-52" target="-UWTrZrqMGVvwUXP6qzr-34" edge="1">
          <mxGeometry relative="1" as="geometry">
            <mxPoint x="255" y="410" as="sourcePoint" />
            <mxPoint x="259" y="201" as="targetPoint" />
          </mxGeometry>
        </mxCell>
        <mxCell id="-UWTrZrqMGVvwUXP6qzr-55" value="Extend" style="edgeLabel;resizable=0;html=1;align=center;verticalAlign=middle;" parent="-UWTrZrqMGVvwUXP6qzr-54" connectable="0" vertex="1">
          <mxGeometry relative="1" as="geometry" />
        </mxCell>
        <mxCell id="-UWTrZrqMGVvwUXP6qzr-56" value="Administrator" style="shape=umlActor;verticalLabelPosition=bottom;verticalAlign=top;html=1;outlineConnect=0;" parent="1" vertex="1">
          <mxGeometry x="700" y="290" width="30" height="60" as="geometry" />
        </mxCell>
        <mxCell id="-UWTrZrqMGVvwUXP6qzr-57" value="Korekta zakupu" style="ellipse;whiteSpace=wrap;html=1;" parent="1" vertex="1">
          <mxGeometry x="560" y="300" width="105" height="40" as="geometry" />
        </mxCell>
        <mxCell id="-UWTrZrqMGVvwUXP6qzr-59" value="" style="endArrow=classic;html=1;rounded=0;entryX=1;entryY=0.5;entryDx=0;entryDy=0;exitX=0;exitY=0.5;exitDx=0;exitDy=0;" parent="1" source="-UWTrZrqMGVvwUXP6qzr-57" target="-UWTrZrqMGVvwUXP6qzr-52" edge="1">
          <mxGeometry relative="1" as="geometry">
            <mxPoint x="451" y="358" as="sourcePoint" />
            <mxPoint x="430" y="310" as="targetPoint" />
          </mxGeometry>
        </mxCell>
        <mxCell id="-UWTrZrqMGVvwUXP6qzr-60" value="Extend" style="edgeLabel;resizable=0;html=1;align=center;verticalAlign=middle;" parent="-UWTrZrqMGVvwUXP6qzr-59" connectable="0" vertex="1">
          <mxGeometry relative="1" as="geometry" />
        </mxCell>
        <mxCell id="-UWTrZrqMGVvwUXP6qzr-61" value="" style="endArrow=none;html=1;rounded=0;exitX=1;exitY=0.5;exitDx=0;exitDy=0;" parent="1" source="-UWTrZrqMGVvwUXP6qzr-57" target="-UWTrZrqMGVvwUXP6qzr-56" edge="1">
          <mxGeometry width="50" height="50" relative="1" as="geometry">
            <mxPoint x="640" y="320" as="sourcePoint" />
            <mxPoint x="690" y="270" as="targetPoint" />
          </mxGeometry>
        </mxCell>
        <mxCell id="-UWTrZrqMGVvwUXP6qzr-63" value="" style="endArrow=classic;html=1;rounded=0;entryX=1;entryY=0.5;entryDx=0;entryDy=0;exitX=0;exitY=1;exitDx=0;exitDy=0;" parent="1" source="-UWTrZrqMGVvwUXP6qzr-52" target="-UWTrZrqMGVvwUXP6qzr-44" edge="1">
          <mxGeometry relative="1" as="geometry">
            <mxPoint x="340" y="280" as="sourcePoint" />
            <mxPoint x="341" y="204" as="targetPoint" />
          </mxGeometry>
        </mxCell>
        <mxCell id="-UWTrZrqMGVvwUXP6qzr-64" value="Extend" style="edgeLabel;resizable=0;html=1;align=center;verticalAlign=middle;" parent="-UWTrZrqMGVvwUXP6qzr-63" connectable="0" vertex="1">
          <mxGeometry relative="1" as="geometry" />
        </mxCell>
        <mxCell id="-UWTrZrqMGVvwUXP6qzr-65" value="" style="endArrow=classic;html=1;rounded=0;entryX=1;entryY=1;entryDx=0;entryDy=0;exitX=0.5;exitY=0;exitDx=0;exitDy=0;" parent="1" source="-UWTrZrqMGVvwUXP6qzr-67" target="-UWTrZrqMGVvwUXP6qzr-44" edge="1">
          <mxGeometry relative="1" as="geometry">
            <mxPoint x="290" y="420" as="sourcePoint" />
            <mxPoint x="339" y="348.58" as="targetPoint" />
          </mxGeometry>
        </mxCell>
        <mxCell id="-UWTrZrqMGVvwUXP6qzr-66" value="Extend" style="edgeLabel;resizable=0;html=1;align=center;verticalAlign=middle;" parent="-UWTrZrqMGVvwUXP6qzr-65" connectable="0" vertex="1">
          <mxGeometry relative="1" as="geometry" />
        </mxCell>
        <mxCell id="-UWTrZrqMGVvwUXP6qzr-67" value="Dodanie do ulubionych" style="ellipse;whiteSpace=wrap;html=1;" parent="1" vertex="1">
          <mxGeometry x="305" y="410" width="96" height="40" as="geometry" />
        </mxCell>
        <mxCell id="-UWTrZrqMGVvwUXP6qzr-68" value="Dodawanie&lt;br&gt;&amp;nbsp;środków do&lt;br&gt;&amp;nbsp;serwisu" style="ellipse;whiteSpace=wrap;html=1;" parent="1" vertex="1">
          <mxGeometry x="205" y="40" width="125" height="50" as="geometry" />
        </mxCell>
        <mxCell id="-UWTrZrqMGVvwUXP6qzr-72" value="" style="endArrow=classic;html=1;rounded=0;exitX=0.98;exitY=0.673;exitDx=0;exitDy=0;exitPerimeter=0;entryX=0;entryY=0;entryDx=0;entryDy=0;" parent="1" source="-UWTrZrqMGVvwUXP6qzr-68" target="-UWTrZrqMGVvwUXP6qzr-48" edge="1">
          <mxGeometry relative="1" as="geometry">
            <mxPoint x="348" y="100" as="sourcePoint" />
            <mxPoint x="330" y="40" as="targetPoint" />
          </mxGeometry>
        </mxCell>
        <mxCell id="-UWTrZrqMGVvwUXP6qzr-73" value="Include" style="edgeLabel;resizable=0;html=1;align=center;verticalAlign=middle;" parent="-UWTrZrqMGVvwUXP6qzr-72" connectable="0" vertex="1">
          <mxGeometry relative="1" as="geometry" />
        </mxCell>
        <mxCell id="-UWTrZrqMGVvwUXP6qzr-74" value="Logowanie" style="ellipse;whiteSpace=wrap;html=1;" parent="1" vertex="1">
          <mxGeometry x="160" y="410" width="90" height="40" as="geometry" />
        </mxCell>
        <mxCell id="-UWTrZrqMGVvwUXP6qzr-75" value="" style="endArrow=classic;html=1;rounded=0;exitX=0.292;exitY=0.927;exitDx=0;exitDy=0;exitPerimeter=0;entryX=0.5;entryY=0;entryDx=0;entryDy=0;" parent="1" source="-UWTrZrqMGVvwUXP6qzr-44" edge="1" target="-UWTrZrqMGVvwUXP6qzr-74">
          <mxGeometry relative="1" as="geometry">
            <mxPoint x="345" y="179.57999999999998" as="sourcePoint" />
            <mxPoint x="215" y="410" as="targetPoint" />
          </mxGeometry>
        </mxCell>
        <mxCell id="-UWTrZrqMGVvwUXP6qzr-76" value="Include" style="edgeLabel;resizable=0;html=1;align=center;verticalAlign=middle;" parent="-UWTrZrqMGVvwUXP6qzr-75" connectable="0" vertex="1">
          <mxGeometry relative="1" as="geometry" />
        </mxCell>
        <mxCell id="-UWTrZrqMGVvwUXP6qzr-78" value="Przejście na plan premium" style="ellipse;whiteSpace=wrap;html=1;" parent="1" vertex="1">
          <mxGeometry x="205" y="100" width="125" height="50" as="geometry" />
        </mxCell>
        <mxCell id="-UWTrZrqMGVvwUXP6qzr-80" value="" style="endArrow=classic;html=1;rounded=0;exitX=1;exitY=0.5;exitDx=0;exitDy=0;entryX=0;entryY=0.5;entryDx=0;entryDy=0;" parent="1" source="-UWTrZrqMGVvwUXP6qzr-78" target="-UWTrZrqMGVvwUXP6qzr-48" edge="1">
          <mxGeometry relative="1" as="geometry">
            <mxPoint x="318" y="84" as="sourcePoint" />
            <mxPoint x="419" y="136" as="targetPoint" />
          </mxGeometry>
        </mxCell>
        <mxCell id="-UWTrZrqMGVvwUXP6qzr-81" value="Include" style="edgeLabel;resizable=0;html=1;align=center;verticalAlign=middle;" parent="-UWTrZrqMGVvwUXP6qzr-80" connectable="0" vertex="1">
          <mxGeometry relative="1" as="geometry" />
        </mxCell>
        <mxCell id="-UWTrZrqMGVvwUXP6qzr-83" value="Przeglądanie zakupionych akcji" style="ellipse;whiteSpace=wrap;html=1;" parent="1" vertex="1">
          <mxGeometry x="205" y="165" width="120" height="50" as="geometry" />
        </mxCell>
        <mxCell id="-UWTrZrqMGVvwUXP6qzr-85" value="Sprzedaż akcji" style="ellipse;whiteSpace=wrap;html=1;" parent="1" vertex="1">
          <mxGeometry x="390" y="200" width="105" height="40" as="geometry" />
        </mxCell>
        <mxCell id="-UWTrZrqMGVvwUXP6qzr-86" value="" style="endArrow=classic;html=1;rounded=0;entryX=1;entryY=0.5;entryDx=0;entryDy=0;exitX=0;exitY=0.5;exitDx=0;exitDy=0;" parent="1" source="-UWTrZrqMGVvwUXP6qzr-85" target="-UWTrZrqMGVvwUXP6qzr-83" edge="1">
          <mxGeometry relative="1" as="geometry">
            <mxPoint x="386" y="276" as="sourcePoint" />
            <mxPoint x="330" y="230" as="targetPoint" />
          </mxGeometry>
        </mxCell>
        <mxCell id="-UWTrZrqMGVvwUXP6qzr-87" value="Extend" style="edgeLabel;resizable=0;html=1;align=center;verticalAlign=middle;" parent="-UWTrZrqMGVvwUXP6qzr-86" connectable="0" vertex="1">
          <mxGeometry relative="1" as="geometry" />
        </mxCell>
        <mxCell id="-UWTrZrqMGVvwUXP6qzr-92" value="" style="endArrow=classic;html=1;rounded=0;exitX=0.954;exitY=0.31;exitDx=0;exitDy=0;entryX=0.091;entryY=0.827;entryDx=0;entryDy=0;entryPerimeter=0;exitPerimeter=0;" parent="1" source="-UWTrZrqMGVvwUXP6qzr-83" target="-UWTrZrqMGVvwUXP6qzr-48" edge="1">
          <mxGeometry relative="1" as="geometry">
            <mxPoint x="310" y="155" as="sourcePoint" />
            <mxPoint x="540" y="150" as="targetPoint" />
          </mxGeometry>
        </mxCell>
        <mxCell id="-UWTrZrqMGVvwUXP6qzr-93" value="Include" style="edgeLabel;resizable=0;html=1;align=center;verticalAlign=middle;" parent="-UWTrZrqMGVvwUXP6qzr-92" connectable="0" vertex="1">
          <mxGeometry relative="1" as="geometry" />
        </mxCell>
        <mxCell id="-UWTrZrqMGVvwUXP6qzr-97" value="" style="endArrow=classic;html=1;rounded=0;exitX=0.5;exitY=0;exitDx=0;exitDy=0;entryX=0.5;entryY=1;entryDx=0;entryDy=0;" parent="1" source="-UWTrZrqMGVvwUXP6qzr-57" target="-UWTrZrqMGVvwUXP6qzr-48" edge="1">
          <mxGeometry relative="1" as="geometry">
            <mxPoint x="557" y="218.5" as="sourcePoint" />
            <mxPoint x="650" y="191.5" as="targetPoint" />
          </mxGeometry>
        </mxCell>
        <mxCell id="-UWTrZrqMGVvwUXP6qzr-98" value="Include" style="edgeLabel;resizable=0;html=1;align=center;verticalAlign=middle;" parent="-UWTrZrqMGVvwUXP6qzr-97" connectable="0" vertex="1">
          <mxGeometry relative="1" as="geometry" />
        </mxCell>
        <mxCell id="-UWTrZrqMGVvwUXP6qzr-106" value="Zgłoszenie bugów" style="ellipse;whiteSpace=wrap;html=1;" parent="1" vertex="1">
          <mxGeometry x="205" y="-10" width="120" height="40" as="geometry" />
        </mxCell>
        <mxCell id="NT6WV9JwDcPzEpmIpNQx-1" value="" style="endArrow=none;html=1;rounded=0;entryX=0;entryY=0.5;entryDx=0;entryDy=0;" edge="1" parent="1" target="-UWTrZrqMGVvwUXP6qzr-106">
          <mxGeometry width="50" height="50" relative="1" as="geometry">
            <mxPoint x="130" y="140" as="sourcePoint" />
            <mxPoint x="200" y="70" as="targetPoint" />
          </mxGeometry>
        </mxCell>
        <mxCell id="NT6WV9JwDcPzEpmIpNQx-2" value="" style="endArrow=none;html=1;rounded=0;entryX=0.75;entryY=0.1;entryDx=0;entryDy=0;entryPerimeter=0;exitX=0;exitY=0.5;exitDx=0;exitDy=0;" edge="1" parent="1" source="-UWTrZrqMGVvwUXP6qzr-68" target="-UWTrZrqMGVvwUXP6qzr-1">
          <mxGeometry width="50" height="50" relative="1" as="geometry">
            <mxPoint x="250" y="110" as="sourcePoint" />
            <mxPoint x="180" y="100" as="targetPoint" />
          </mxGeometry>
        </mxCell>
        <mxCell id="NT6WV9JwDcPzEpmIpNQx-3" value="" style="endArrow=none;html=1;rounded=0;entryX=0;entryY=0.5;entryDx=0;entryDy=0;" edge="1" parent="1" source="-UWTrZrqMGVvwUXP6qzr-1" target="-UWTrZrqMGVvwUXP6qzr-78">
          <mxGeometry width="50" height="50" relative="1" as="geometry">
            <mxPoint x="180" y="170" as="sourcePoint" />
            <mxPoint x="230" y="120" as="targetPoint" />
          </mxGeometry>
        </mxCell>
        <mxCell id="NT6WV9JwDcPzEpmIpNQx-4" value="" style="endArrow=none;html=1;rounded=0;entryX=-0.017;entryY=0.411;entryDx=0;entryDy=0;entryPerimeter=0;" edge="1" parent="1" source="-UWTrZrqMGVvwUXP6qzr-1" target="-UWTrZrqMGVvwUXP6qzr-83">
          <mxGeometry width="50" height="50" relative="1" as="geometry">
            <mxPoint x="170" y="200" as="sourcePoint" />
            <mxPoint x="220" y="150" as="targetPoint" />
          </mxGeometry>
        </mxCell>
        <mxCell id="NT6WV9JwDcPzEpmIpNQx-7" value="" style="endArrow=block;html=1;rounded=0;exitX=0.5;exitY=0;exitDx=0;exitDy=0;exitPerimeter=0;endFill=0;" edge="1" parent="1" source="-UWTrZrqMGVvwUXP6qzr-2" target="-UWTrZrqMGVvwUXP6qzr-1">
          <mxGeometry width="50" height="50" relative="1" as="geometry">
            <mxPoint x="100" y="280" as="sourcePoint" />
            <mxPoint x="150" y="230" as="targetPoint" />
          </mxGeometry>
        </mxCell>
      </root>
    </mxGraphModel>
  </diagram>
</mxfile>
